<svg xmlns="http://www.w3.org/2000/svg" viewBox="0 0 74.5 67.25"><defs><style>.cls-1{fill:#5689ff;opacity:0.4;}.cls-1,.cls-3{fill-rule:evenodd;}.cls-2,.cls-3{fill:none;stroke:#353c4a;stroke-linecap:round;stroke-linejoin:round;stroke-width:3px;}</style></defs><title>marketplace_icon</title><g id="Layer_2" data-name="Layer 2"><g id="hero_-_iphone" data-name="hero - iphone"><path class="cls-1" d="M40.37,5.35H15.31a1.64,1.64,0,0,0-1.51,1L6.73,23.47a6.47,6.47,0,0,0,10.11,7.46,2.23,2.23,0,0,1,2.88.06,6.4,6.4,0,0,0,8.11,0,2.31,2.31,0,0,1,3,0,6.4,6.4,0,0,0,8.11,0,2.31,2.31,0,0,1,3,0A6.4,6.4,0,0,0,50,31a2.32,2.32,0,0,1,3,0A6.4,6.4,0,0,0,61,31a2.23,2.23,0,0,1,2.88-.06,6.41,6.41,0,0,0,6.6,1A6.5,6.5,0,0,0,74,23.47L66.93,6.36a1.62,1.62,0,0,0-1.5-1H40.37"/><path class="cls-2" d="M47.59,61.38h15.7V35.74"/><path class="cls-2" d="M8,35.74V61.38H42.2"/><line class="cls-2" x1="40.4" y1="47.56" x2="7.98" y2="47.56"/><path class="cls-3" d="M35.63,1.5H10.57a1.62,1.62,0,0,0-1.5,1L2,19.62A6.51,6.51,0,0,0,5.5,28.1a6.43,6.43,0,0,0,6.6-1,2.24,2.24,0,0,1,2.88.06A6.43,6.43,0,0,0,19,28.59a6.32,6.32,0,0,0,4.05-1.45,2.32,2.32,0,0,1,3,0,6.4,6.4,0,0,0,8.11,0,2.31,2.31,0,0,1,3,0,6.4,6.4,0,0,0,8.11,0,2.31,2.31,0,0,1,3,0,6.4,6.4,0,0,0,8.11,0,2.24,2.24,0,0,1,2.88-.06,6.47,6.47,0,0,0,10.11-7.46L62.2,2.52a1.64,1.64,0,0,0-1.51-1H35.63"/><line class="cls-2" x1="68.17" y1="17.91" x2="9.53" y2="17.91"/><line class="cls-2" x1="63.29" y1="47.56" x2="49.7" y2="47.56"/><path class="cls-2" d="M45.05,41.17a4.65,4.65,0,0,0-4.65,4.65v5a4.63,4.63,0,0,0,2.11,3.89v8.5a2.54,2.54,0,0,0,5.08,0v-8.5a4.63,4.63,0,0,0,2.11-3.89v-5A4.65,4.65,0,0,0,45.05,41.17Z"/><rect class="cls-2" x="42.63" y="35.66" width="4.72" height="5.51" rx="2.36" ry="2.36"/><path class="cls-2" d="M31.48,46.56v-.74a4.65,4.65,0,0,0-9.3,0v.74"/><rect class="cls-2" x="24.41" y="35.66" width="4.72" height="5.51" rx="2.36" ry="2.36"/></g></g></svg>