<svg xmlns="http://www.w3.org/2000/svg" viewBox="0 0 75 75"><defs><style>.cls-1,.cls-3{fill:none;}.cls-2{fill:#5689ff;opacity:0.4;}.cls-3{stroke:#353c4a;stroke-linecap:round;stroke-linejoin:round;stroke-width:3px;}</style></defs><title>megadeals_icon</title><g id="Layer_2" data-name="Layer 2"><g id="hero_-_iphone" data-name="hero - iphone"><rect class="cls-1" width="75" height="75"/><path class="cls-2" d="M70.11,32a7.6,7.6,0,1,0-15.19,0H52v41.2H73V32Z"/><polyline class="cls-3" points="13.46 31.4 13.46 15.07 39.28 6.11 39.28 68.21"/><line class="cls-3" x1="2" y1="68.21" x2="73" y2="68.21"/><polyline class="cls-3" points="7 68.21 7 31.81 26.21 31.81 26.21 68.21"/><path class="cls-3" d="M49.92,27a7.6,7.6,0,0,1,15.19,0"/><polyline class="cls-3" points="47.03 68.21 47.03 27 68 27 68 68.21"/><line class="cls-3" x1="57.51" y1="19.41" x2="57.51" y2="13.46"/><line class="cls-3" x1="47.03" y1="34.21" x2="63.19" y2="34.21"/><line class="cls-3" x1="19.84" y1="21.73" x2="19.84" y2="25.93"/><line class="cls-3" x1="26.22" y1="21.73" x2="26.22" y2="25.93"/><line class="cls-3" x1="32.59" y1="21.73" x2="32.59" y2="25.93"/><line class="cls-3" x1="32.59" y1="31.81" x2="32.59" y2="36.02"/><line class="cls-3" x1="32.59" y1="41.9" x2="32.59" y2="46.1"/><line class="cls-3" x1="32.59" y1="51.98" x2="32.59" y2="56.18"/><path class="cls-3" d="M60.09,68.21V61.45a2.57,2.57,0,0,0-2.58-2.57h0a2.57,2.57,0,0,0-2.57,2.57v6.76"/><path class="cls-3" d="M19.19,68.21V61.45a2.58,2.58,0,0,0-2.58-2.57h0A2.58,2.58,0,0,0,14,61.45v6.76"/><line class="cls-3" x1="13.42" y1="39.02" x2="13.42" y2="41.9"/><line class="cls-3" x1="19.8" y1="39.02" x2="19.8" y2="41.9"/><line class="cls-3" x1="13.42" y1="47.9" x2="13.42" y2="50.78"/><line class="cls-3" x1="19.8" y1="47.9" x2="19.8" y2="50.78"/></g></g></svg>